<svg width="80" height="80" viewBox="0 0 80 80" fill="none" xmlns="http://www.w3.org/2000/svg">
<path fill-rule="evenodd" clip-rule="evenodd" d="M78.6237 9.60071e-05C78.5537 0.00351052 78.4842 0.0124273 78.4157 0.0267637C71.0554 0.0614316 64.2738 1.58416 58.1189 4.15759C58.0828 4.1694 58.0472 4.18274 58.0122 4.19759C57.9589 4.22426 57.8949 4.23759 57.8362 4.26159C57.722 4.3105 57.6152 4.37512 57.5189 4.4536C57.0148 4.69361 56.4602 4.97895 55.8681 5.30163C55.8328 5.31613 55.7981 5.33215 55.7641 5.34963C55.7001 5.38163 55.6415 5.42164 55.5774 5.45364C55.3188 5.59498 55.1721 5.66964 54.9268 5.80832C46.2464 10.3765 38.9262 16.8114 33.0246 24.033C31.906 23.5478 30.726 23.2185 29.5178 23.0543C25.0216 22.5023 20.1281 24.1317 15.5813 27.3131C9.51704 31.5586 3.90349 38.6016 0.106016 47.4926C-0.00922757 47.764 -0.0312176 48.0661 0.0434872 48.3514C0.118192 48.6367 0.285376 48.8891 0.518875 49.0693C0.752374 49.2495 1.03901 49.3471 1.33393 49.347C1.62885 49.3469 1.91541 49.249 2.14876 49.0686C7.6503 44.8018 11.9305 42.5004 14.9226 41.959C16.4213 41.6923 17.5627 41.8284 18.5174 42.2817C19.3414 42.6737 20.0641 43.3431 20.7255 44.3405C20.5548 44.7405 20.3441 45.1405 20.1788 45.5405C20.0789 45.7842 20.0535 46.0521 20.1057 46.3103C20.1579 46.5685 20.2854 46.8054 20.4721 46.9912L23.3362 49.8553C20.8481 53.6048 18.288 57.8716 15.5173 62.6558C15.5146 62.6558 15.5066 62.6531 15.5013 62.6798C15.491 62.6982 15.4813 62.7169 15.4719 62.7358C15.4664 62.7482 15.4611 62.7606 15.4559 62.7731C15.4523 62.782 15.4487 62.7909 15.4453 62.7998C15.4296 62.8339 15.4154 62.8686 15.4026 62.9038C15.3989 62.9127 15.3954 62.9216 15.3919 62.9305C15.3818 62.963 15.3729 62.9959 15.3653 63.0292C15.3542 63.0722 15.3453 63.1159 15.3386 63.1598C15.3352 63.1855 15.3325 63.2113 15.3306 63.2372C15.3285 63.2549 15.3267 63.2727 15.3253 63.2905C15.3252 63.3003 15.3252 63.3101 15.3253 63.3198C15.3248 63.3643 15.3266 63.4088 15.3306 63.4532C15.3327 63.4889 15.3363 63.5244 15.3413 63.5598C15.3429 63.5688 15.3447 63.5776 15.3466 63.5865C15.3551 63.6306 15.3657 63.6742 15.3786 63.7172C15.3901 63.7569 15.4035 63.7961 15.4186 63.8345C15.4314 63.8689 15.4457 63.9027 15.4613 63.9359C15.4783 63.9722 15.497 64.0078 15.5173 64.0425C15.519 64.0425 15.5208 64.0425 15.5226 64.0425C15.5278 64.0515 15.5332 64.0604 15.5386 64.0692C15.5588 64.0985 15.5801 64.127 15.6026 64.1545C15.6069 64.1635 15.6114 64.1724 15.6159 64.1812C15.6397 64.2089 15.6646 64.2356 15.6906 64.2612C15.7121 64.2833 15.7343 64.3046 15.7573 64.3252C15.766 64.336 15.7749 64.3467 15.7839 64.3572C15.7909 64.3662 15.7981 64.3751 15.8053 64.3839C15.832 64.4054 15.8596 64.4258 15.8879 64.4452C15.8949 64.4542 15.9021 64.4631 15.9093 64.4719C15.9395 64.4936 15.9707 64.5141 16.0026 64.5332C16.0415 64.5566 16.0816 64.5779 16.1226 64.5972C16.1428 64.6066 16.1633 64.6155 16.184 64.6239C16.2033 64.6332 16.2229 64.6421 16.2426 64.6506C16.2515 64.6506 16.2604 64.6506 16.2693 64.6506C16.3036 64.6599 16.3383 64.6679 16.3733 64.6746C16.4041 64.6846 16.4352 64.6935 16.4666 64.7012C16.4871 64.7017 16.5075 64.7017 16.528 64.7012C16.5644 64.7027 16.6009 64.7027 16.6373 64.7012C16.6444 64.7013 16.6515 64.7013 16.6586 64.7012C16.7482 64.7013 16.8375 64.6924 16.9253 64.6746C16.9676 64.6659 17.0094 64.6552 17.0507 64.6426C17.0941 64.6296 17.1368 64.6145 17.1787 64.5972C17.229 64.5754 17.278 64.5504 17.3253 64.5226C17.3573 64.4959 17.3787 64.4905 17.408 64.4692C22.1655 61.7091 26.419 59.1543 30.1552 56.6743L32.9206 59.4397C33.1066 59.6269 33.344 59.7548 33.6028 59.807C33.8615 59.8592 34.1299 59.8335 34.374 59.733C34.7633 59.573 35.158 59.3624 35.55 59.1943C37.6941 60.5997 38.4568 62.2398 37.9821 65.0346C37.4674 68.056 35.2007 72.3575 30.9365 77.8564C30.7562 78.0897 30.6583 78.3763 30.6582 78.6712C30.658 78.9661 30.7557 79.2528 30.9359 79.4863C31.116 79.7198 31.3685 79.887 31.6538 79.9617C31.9391 80.0364 32.2411 80.0144 32.5126 79.8991C41.4036 76.1017 48.4465 70.4854 52.692 64.4239C56.7428 58.637 58.2202 52.3008 55.9455 46.9245C63.1271 41.119 69.546 33.9427 74.1195 25.4384C74.3062 25.1131 74.4182 24.8997 74.6182 24.5477C75.0395 23.817 75.4049 23.1316 75.7089 22.4943C75.7535 22.4268 75.7919 22.3554 75.8236 22.2809C75.8236 22.2783 75.8236 22.2703 75.8289 22.2676C75.8502 22.2143 75.8956 22.1476 75.9169 22.0996C75.9588 21.9996 75.9884 21.8948 76.0049 21.7876C78.6652 15.2976 80.0226 8.34754 79.9997 1.33348C79.9997 1.15793 79.965 0.984103 79.8977 0.821981C79.8304 0.659859 79.7317 0.512631 79.6073 0.388745C79.4829 0.264858 79.3353 0.166753 79.1729 0.100059C79.0105 0.0333645 78.8365 -0.000606202 78.661 9.60071e-05C78.6592 9.24514e-05 78.6574 9.24514e-05 78.6557 9.60071e-05C78.645 -3.20024e-05 78.6343 -3.20024e-05 78.6237 9.60071e-05ZM77.1863 2.81887C77.0389 8.36581 75.9803 13.8508 74.0528 19.0542L61.031 6.03766C66.2004 4.07644 71.66 2.98867 77.1863 2.81887ZM58.1349 7.15237L72.9568 22.0063C72.8394 22.2329 72.6981 22.489 72.5674 22.7343C72.5656 22.7361 72.5639 22.7378 72.5621 22.7396C72.5163 22.8027 72.4762 22.8696 72.4421 22.9396C72.2128 23.3877 71.9567 23.8197 71.7194 24.2624C71.4634 24.7077 71.17 25.2037 70.994 25.5531C70.9684 25.6049 70.9461 25.6583 70.9274 25.7131C62.3884 40.5083 47.7905 51.0847 34.126 56.8769L32.3846 55.1329C34.6193 53.5648 36.7047 52.0127 38.4301 50.4553C43.441 45.9458 46.2811 41.1483 45.6491 35.6788C45.6393 35.5808 45.6188 35.4842 45.5877 35.3908L45.5611 35.3294C45.4596 35.0357 45.2586 34.7867 44.993 34.6254L44.889 34.5641C44.7258 34.4641 44.543 34.4004 44.353 34.3774V34.3507C38.8808 33.7187 34.078 36.5615 29.5658 41.5697C28.0057 43.3004 26.4483 45.3858 24.8776 47.6259L23.0349 45.7832C28.8218 32.1427 39.3742 17.7741 54.1561 9.25645C54.2146 9.23557 54.2717 9.21062 54.3267 9.18178C55.3134 8.68309 56.9908 7.74172 58.1349 7.15237ZM54.7641 18.6515C53.0734 18.6515 51.3773 19.2915 50.0972 20.5715C48.866 21.8114 48.1755 23.4881 48.1765 25.2355C48.1775 26.9828 48.8699 28.6588 50.1026 29.8972C51.3407 31.128 53.0156 31.8189 54.7614 31.8189C56.5072 31.8189 58.1821 31.128 59.4203 29.8972C60.6521 28.6589 61.3441 26.9835 61.3451 25.2368C61.3461 23.4901 60.656 21.814 59.4256 20.5742C58.8133 19.9631 58.0863 19.4788 57.2863 19.1493C56.4864 18.8198 55.6292 18.6489 54.7641 18.6515ZM54.7641 21.3022C55.7668 21.3022 56.7695 21.6863 57.5402 22.4596C57.9067 22.8232 58.1975 23.2559 58.3958 23.7326C58.5941 24.2093 58.6959 24.7205 58.6954 25.2368C58.6949 25.7531 58.5921 26.2642 58.3929 26.7405C58.1937 27.2168 57.9021 27.6489 57.5349 28.0118C57.1721 28.3785 56.7401 28.6696 56.2641 28.8683C55.788 29.067 55.2773 29.1693 54.7614 29.1693C54.2456 29.1693 53.7348 29.067 53.2588 28.8683C52.7827 28.6696 52.3508 28.3785 51.988 28.0118C51.6208 27.6489 51.3291 27.2168 51.1299 26.7405C50.9307 26.2642 50.8279 25.7531 50.8274 25.2368C50.8269 24.7205 50.9287 24.2093 51.127 23.7326C51.3253 23.2559 51.6161 22.8232 51.9827 22.4596C52.756 21.6863 53.7614 21.3022 54.7641 21.3022ZM26.8004 25.7104C28.2564 25.7237 29.6218 26.1184 30.9712 26.5424C30.5365 27.1371 30.1125 27.7638 29.6858 28.3772L29.5925 28.5158C28.5524 30.0119 27.5311 31.556 26.5497 33.164C25.723 34.5001 24.9683 35.8415 24.2296 37.1935L23.8403 37.9135C23.1281 39.2474 22.4514 40.6 21.8108 41.9697C21.1281 41.215 20.5521 40.2896 19.6641 39.8709C18.1334 39.1456 16.3573 38.9909 14.4506 39.3349C11.8585 39.8016 8.78101 41.4523 5.41288 43.6364C8.78634 37.6575 12.7625 32.5373 17.1067 29.4972C19.8854 27.5505 22.6695 26.3131 25.3096 25.8357C25.8163 25.7424 26.315 25.7024 26.8004 25.7104ZM42.753 37.2522C42.7183 41.1163 40.8596 44.6551 36.6461 48.4499C32.8593 51.8554 27.163 55.4769 20.6188 59.3837C24.5203 52.8341 28.1391 47.1326 31.5445 43.3511C35.3447 39.1349 38.8862 37.2842 42.753 37.2522ZM53.4627 49.0073C54.7694 53.1488 53.9561 57.9676 50.5079 62.8932C47.4625 67.2453 42.3289 71.2268 36.3367 74.6003C38.5235 71.2081 40.1662 68.1014 40.6116 65.4799C41.1289 62.4558 39.9129 60.021 37.9101 58.117C39.3277 57.4567 40.7274 56.7587 42.1076 56.0236L42.3103 55.9142C43.5477 55.2502 44.785 54.6075 46.0144 53.8715C48.5777 52.3768 51.0636 50.7533 53.4627 49.0073ZM18.1894 55.4875L7.78897 65.8933L9.05035 67.16L14.5652 61.6424C15.7568 59.5806 16.9631 57.5289 18.1894 55.4875ZM24.4136 61.8985C22.4615 63.0772 20.4001 64.2825 18.2587 65.5279L11.5758 72.2108L12.8398 73.4722L24.4136 61.8985ZM14.2372 64.4986L6.52226 72.2108L7.78897 73.4722L15.5013 65.7573C15.4693 65.7573 15.4346 65.7306 15.4026 65.7173C15.3927 65.7085 15.3829 65.6996 15.3733 65.6906L15.2479 65.6106L15.2639 65.6373C15.1539 65.5694 15.0495 65.4927 14.9519 65.4079C14.9411 65.3983 14.9304 65.3885 14.9199 65.3786C14.8979 65.3597 14.8766 65.3402 14.8559 65.3199C14.8506 65.3199 14.8452 65.3199 14.8399 65.3199C14.8381 65.3199 14.8364 65.3199 14.8346 65.3199C14.83 65.3111 14.8256 65.3022 14.8212 65.2932C14.8026 65.2666 14.7812 65.2666 14.7626 65.2399C14.7553 65.2311 14.7482 65.2222 14.7412 65.2132C14.7199 65.1866 14.6959 65.1759 14.6746 65.1492C14.6348 65.1061 14.5966 65.0617 14.5599 65.0159C14.5562 65.007 14.5527 64.9982 14.5492 64.9892C14.5012 64.9279 14.4666 64.8639 14.4239 64.7999C14.361 64.7209 14.3074 64.635 14.2639 64.5439C14.2559 64.5172 14.2452 64.5119 14.2372 64.4986ZM6.52226 67.16L5.25821 68.4187L6.52226 69.6854L7.78364 68.4187L6.52226 67.16ZM5.25821 73.4722L3.99683 74.7363L5.25821 75.9977L6.52226 74.7363L5.25821 73.4722ZM10.3091 73.4722L9.05035 74.7363L10.3091 75.9977L11.5758 74.7363L10.3091 73.4722Z" fill="url(#paint0_linear_14_27)"/>
<defs>
<linearGradient id="paint0_linear_14_27" x1="-0.000655149" y1="40.0016" x2="74.6662" y2="40.0016" gradientUnits="userSpaceOnUse">
<stop stop-color="#000092"/>
<stop offset="1" stop-color="#FF00F3"/>
</linearGradient>
</defs>
</svg>
